<svg xmlns="http://www.w3.org/2000/svg" viewBox="0 0 256 256">
  <defs>
    <linearGradient id="g" x1="0" x2="1" y1="0" y2="1">
      <stop offset="0" stop-color="#8b5cf6"/>
      <stop offset="1" stop-color="#22d3ee"/>
    </linearGradient>
  </defs>
  <rect width="256" height="256" rx="56" fill="#0b1020"/>
  <circle cx="128" cy="128" r="78" fill="none" stroke="url(#g)" stroke-width="18"/>
  <path d="M128 62c12 20 18 36 18 52 0 20-8 36-18 52-10-16-18-32-18-52 0-16 6-32 18-52Z" fill="url(#g)"/>
  <path d="M92 126c16 8 28 18 36 30 10 16 12 34 10 54-16-10-30-22-40-38-8-12-10-28-6-46Z" fill="url(#g)" opacity="0.9"/>
  <path d="M164 126c4 18 2 34-6 46-10 16-24 28-40 38-2-20 0-38 10-54 8-12 20-22 36-30Z" fill="url(#g)" opacity="0.9"/>
</svg>

